<svg xmlns="http://www.w3.org/2000/svg" width="154" height="157" viewBox="0 0 154 157">
<g>
<path  style="fill:#6f6f6f;fill-opacity:1" d="M 47.00 146.42 C41.22,143.95 34.11,140.81 31.19,139.44 C28.26,138.08 25.46,137.21 24.96,137.53 C23.95,138.15 20.34,136.50 18.00,134.34 C17.17,133.58 15.27,132.04 13.77,130.92 C12.27,129.80 11.12,128.57 11.22,128.19 C11.56,126.95 8.73,119.59 7.42,118.28 C4.97,115.83 3.80,99.98 5.24,88.70 C5.96,83.06 9.37,75.76 13.26,71.52 C16.16,68.36 17.85,60.37 18.21,48.19 L 18.54 36.88 L 26.02 29.89 C33.91,22.51 41.99,16.36 42.02,17.70 C42.02,18.14 42.41,17.91 42.87,17.18 C43.32,16.46 44.33,15.74 45.10,15.58 C45.87,15.43 47.17,15.05 48.00,14.73 C48.83,14.42 50.29,14.15 51.25,14.12 C52.21,14.09 54.62,14.01 56.60,13.93 C61.35,13.76 62.85,15.29 59.92,17.34 C58.69,18.21 57.30,18.68 56.84,18.40 C56.38,18.11 56.00,18.28 56.00,18.76 C56.00,19.24 52.51,21.16 48.25,23.02 C42.70,25.44 38.70,28.11 34.15,32.45 C24.37,41.76 23.53,44.58 26.59,57.69 C27.66,62.26 27.97,66.47 27.55,70.50 C26.03,84.87 25.93,91.51 27.21,93.58 C30.57,99.01 35.92,105.93 40.00,110.13 C44.22,114.47 51.72,119.00 54.69,119.00 C55.41,119.00 56.00,119.34 56.00,119.75 C56.00,120.16 58.14,120.49 60.75,120.49 C63.36,120.48 67.75,121.29 70.50,122.28 C73.25,123.28 76.29,124.35 77.25,124.66 C78.21,124.98 79.00,125.63 79.00,126.12 C79.00,126.60 79.87,127.00 80.93,127.00 C81.99,127.00 83.46,127.56 84.20,128.25 C84.94,128.94 86.21,129.68 87.02,129.90 C87.84,130.12 90.75,130.93 93.50,131.70 C102.75,134.30 108.64,134.17 113.48,131.25 C119.23,127.77 122.33,122.68 124.87,112.56 C127.32,102.79 129.69,98.24 135.55,92.00 C144.17,82.84 145.05,77.33 139.25,68.84 C135.04,62.66 134.36,61.62 129.83,54.31 C126.26,48.57 124.19,47.12 119.00,46.75 C117.07,46.61 114.95,45.83 114.28,45.00 C113.61,44.17 113.05,43.86 113.03,44.29 C113.01,44.72 112.15,44.27 111.12,43.29 C108.90,41.18 104.59,32.75 103.57,28.55 C102.69,24.88 99.00,21.38 93.81,19.31 C87.22,16.67 81.10,18.68 68.64,27.56 C62.90,31.65 57.71,35.00 57.11,35.00 C56.50,35.00 56.00,35.34 55.99,35.75 C55.99,36.16 54.58,37.30 52.85,38.28 L 49.72 40.07 L 50.27 51.28 C50.58,57.45 51.39,63.85 52.08,65.50 C52.77,67.15 53.37,68.80 53.42,69.17 C53.46,69.53 53.84,70.18 54.26,70.60 C55.10,71.44 58.92,79.55 61.04,85.00 C61.79,86.93 63.10,89.05 63.95,89.72 C64.80,90.39 65.05,90.95 64.50,90.97 C61.81,91.07 70.02,94.64 73.41,94.84 C75.57,94.98 77.71,95.32 78.18,95.61 C78.65,95.90 80.26,96.36 81.77,96.63 C83.27,96.90 85.43,98.00 86.56,99.06 C88.61,100.98 93.53,101.73 94.17,100.21 C95.44,97.20 110.18,91.76 112.75,93.34 C114.80,94.61 117.04,90.05 118.61,81.43 C120.56,70.75 120.93,62.64 119.53,61.40 C118.96,60.91 117.60,60.35 116.50,60.17 C113.95,59.75 105.00,54.08 105.00,52.90 C105.00,52.40 104.66,52.11 104.25,52.24 C103.84,52.37 101.03,50.63 98.00,48.38 C91.72,43.72 89.34,42.65 88.43,44.11 C88.08,44.68 87.17,44.89 86.40,44.60 C85.63,44.30 85.00,44.41 85.00,44.84 C85.00,45.79 77.91,49.00 75.82,49.00 C74.99,49.00 73.38,49.79 72.25,50.75 C71.11,51.71 69.32,53.11 68.25,53.86 C66.11,55.36 65.17,63.00 67.12,63.00 C67.74,63.00 68.00,63.88 67.72,64.98 C67.09,67.38 68.82,74.70 70.71,77.64 C72.52,80.45 76.00,79.68 76.00,76.47 C76.00,75.20 76.56,73.94 77.25,73.66 C78.23,73.27 78.23,73.14 77.26,73.08 C74.86,72.93 70.48,58.00 72.84,58.00 C73.40,58.00 74.64,57.21 75.61,56.25 C76.72,55.14 78.89,54.50 81.58,54.50 C83.91,54.50 85.58,54.13 85.30,53.68 C85.03,53.23 85.41,52.98 86.15,53.11 C86.89,53.25 89.42,52.76 91.76,52.02 C95.31,50.90 96.44,50.90 98.51,52.01 C99.88,52.74 101.00,53.95 101.00,54.70 C101.00,55.45 101.67,56.32 102.49,56.64 C103.32,56.95 103.74,57.61 103.44,58.10 C103.13,58.60 103.35,59.00 103.92,59.00 C104.49,59.00 105.24,60.12 105.59,61.50 C105.93,62.88 106.61,64.00 107.08,64.00 C107.56,64.00 108.68,66.53 109.58,69.62 C111.14,75.01 111.13,75.35 109.26,77.85 C107.01,80.86 102.95,82.14 88.00,84.52 C69.30,87.51 70.01,87.49 67.57,84.86 C64.91,81.99 59.54,73.00 60.49,73.00 C60.86,73.00 60.18,71.41 58.97,69.46 C57.77,67.51 56.63,64.25 56.45,62.21 C56.27,60.17 55.84,57.59 55.50,56.48 C54.31,52.58 67.43,41.00 73.04,41.00 C74.14,41.00 76.81,39.83 78.96,38.41 C81.12,36.98 83.40,36.13 84.03,36.52 C84.66,36.91 87.08,37.31 89.39,37.40 C93.38,37.56 102.99,42.40 103.00,44.25 C103.00,44.66 103.64,45.00 104.42,45.00 C105.20,45.00 105.98,45.34 106.17,45.75 C107.06,47.77 113.44,52.00 115.58,52.00 C116.91,52.00 118.00,52.45 118.00,53.00 C118.00,53.55 118.82,54.00 119.81,54.00 C121.86,54.00 125.95,57.45 126.09,59.29 C126.14,59.96 126.37,62.75 126.60,65.50 C127.51,76.50 126.74,85.01 124.07,93.31 C121.89,100.10 118.04,105.62 117.21,103.14 C116.90,102.19 116.29,102.23 114.61,103.34 C112.78,104.54 112.11,104.56 110.60,103.45 C109.30,102.50 108.08,102.40 106.26,103.09 C104.86,103.62 103.50,103.84 103.23,103.57 C102.97,103.30 101.34,103.83 99.62,104.75 C90.67,109.55 85.79,110.03 80.75,106.60 C78.80,105.28 75.82,103.90 74.12,103.53 C72.42,103.15 70.77,102.43 70.45,101.92 C70.14,101.42 69.21,101.00 68.39,101.00 C67.57,101.00 64.50,99.46 61.56,97.58 C57.44,94.95 55.93,93.27 54.99,90.33 C53.64,86.05 47.88,72.64 44.77,66.50 C42.94,62.90 42.80,61.31 43.37,50.50 L 43.99 38.50 L 47.75 34.94 C49.81,32.98 54.65,28.97 58.50,26.01 C62.35,23.06 65.72,20.36 66.00,20.03 C67.72,17.91 75.43,14.63 81.31,13.51 C87.57,12.32 88.71,12.37 93.85,14.12 C106.36,18.38 110.58,22.40 112.97,32.36 C113.71,35.46 114.36,38.02 114.41,38.04 C114.46,38.07 116.97,38.34 120.00,38.65 C123.03,38.95 126.36,39.66 127.41,40.22 C130.30,41.77 136.00,47.18 136.02,48.41 C136.03,49.01 136.92,50.62 138.00,52.00 C139.08,53.38 139.97,55.29 139.98,56.25 C139.99,57.21 140.41,58.00 140.90,58.00 C141.82,58.00 145.09,62.86 148.17,68.81 C152.34,76.87 148.93,89.14 139.92,98.50 C135.58,103.01 134.85,104.47 132.49,113.38 C129.29,125.47 127.47,128.42 116.29,139.67 C110.78,145.19 104.86,144.95 89.75,138.56 C87.69,137.69 85.85,137.09 85.66,137.24 C85.47,137.38 84.60,136.91 83.74,136.20 C82.44,135.12 81.95,135.18 80.84,136.55 C75.54,143.11 69.42,149.00 67.91,149.00 C66.93,149.00 65.84,149.45 65.50,150.00 C64.18,152.13 57.13,150.77 47.00,146.42 ZM 70.68 139.29 C71.88,138.24 73.17,136.19 73.53,134.73 C74.09,132.50 73.83,132.02 71.85,131.65 C70.56,131.41 66.58,130.67 63.00,130.01 C59.43,129.36 56.26,128.42 55.96,127.94 C55.66,127.45 53.63,126.77 51.46,126.43 C49.28,126.09 47.01,125.41 46.41,124.91 C45.81,124.42 45.02,124.31 44.66,124.68 C44.30,125.04 44.00,124.78 44.00,124.11 C44.00,123.43 43.63,123.11 43.17,123.40 C41.45,124.46 28.57,109.51 29.67,107.73 C30.04,107.13 29.82,106.99 29.15,107.40 C28.51,107.81 28.00,107.54 28.00,106.81 C28.00,106.09 26.45,103.77 24.57,101.65 C20.02,96.54 18.92,88.14 21.42,77.75 C22.35,73.91 22.86,70.52 22.55,70.22 C22.25,69.92 21.87,69.85 21.72,70.08 C12.76,83.25 12.11,84.70 12.04,91.65 C11.97,97.84 12.20,101.00 13.38,110.50 C13.59,112.15 14.26,114.77 14.88,116.32 C15.50,117.86 16.00,119.48 16.00,119.90 C16.00,121.14 22.74,126.93 23.40,126.27 C23.73,125.94 24.00,126.19 24.00,126.83 C24.00,127.47 24.64,128.00 25.43,128.00 C26.21,128.00 27.46,128.56 28.20,129.25 C30.34,131.25 48.14,139.78 57.00,143.06 C61.24,144.63 61.71,144.62 65.00,142.96 C66.93,141.99 69.48,140.34 70.68,139.29 ZM 97.46 76.11 C100.19,75.08 102.58,73.76 102.77,73.19 C102.96,72.62 102.18,70.32 101.04,68.07 C99.89,65.83 99.21,64.00 99.52,64.00 C99.83,64.00 99.51,63.39 98.81,62.64 C97.84,61.60 97.10,61.54 95.74,62.39 C94.26,63.30 94.04,64.35 94.54,68.25 C95.16,73.17 94.93,73.44 90.26,73.27 C89.58,73.25 89.27,73.62 89.57,74.11 C89.87,74.60 89.47,75.00 88.68,75.00 C87.89,75.00 86.68,75.68 86.00,76.50 C84.93,77.79 85.30,78.00 88.63,78.00 C90.76,78.00 94.73,77.15 97.46,76.11 ZM 81.55 68.09 C81.24,67.58 81.55,66.97 82.24,66.72 C82.93,66.48 83.26,66.01 82.97,65.69 C82.06,64.69 79.71,66.72 80.43,67.89 C80.81,68.50 81.34,69.00 81.62,69.00 C81.89,69.00 81.86,68.59 81.55,68.09 ZM 83.58 63.65 C85.25,64.28 85.33,64.17 84.18,62.75 C82.61,60.82 79.99,61.52 80.02,63.86 C80.03,65.09 80.23,65.18 80.85,64.22 C81.34,63.43 82.40,63.21 83.58,63.65 Z" fill="rgba(0,0,0,1)"/>
</g>
</svg>
